<?xml version="1.0" encoding="utf-8"?>
<svg version="1.1" xmlns="http://www.w3.org/2000/svg" xmlns:xlink="http://www.w3.org/1999/xlink" x="0px" y="0px"
	 viewBox="0 0 121 1157" style="enable-background:new 0 0 121 1157;" xml:space="preserve">
<style type="text/css">
	.st0{fill:#F1F1F1;}
	.st1{opacity:0.5;fill:#F1F1F1;enable-background:new;}
</style>
<path class="st0" d="M121,0v1157H96c0-89.4-51.7-141.7-51.7-228.8c0-77.8,53.2-116.3,53.2-248.9s-53.2-128-53.2-245.1
	c0-106.4,53.2-117.2,53.2-252.8S44,0,44,0H121z"/>
<path class="st1" d="M121,1157V0H80c-8.5,49.3-26.7,106.7-26.7,158.3c0,138.8,39.3,121,39.3,263.6c0,10-0.8,19.2-0.8,27.7
	c0,0,0,3.9,0,6.2c-1.5,24.7-4.6,44.7-7.7,61.7c-6.1,27.7-15.4,51.6-22.3,84c-5.3,22.3-9.2,49.3-9.2,88.6c0,0.8,0,1.5,0,2.3
	s0,1.5,0,2.3c0,39.3,3.8,65.5,9.2,88.6c6.9,31.6,16.1,56.3,22.3,84c3.8,17,6.2,37,7.7,61.7c0,2.3,0,3.9,0,6.2l0,0
	c0.8,8.4,0.8,17.7,0.8,27.7c0,122.5-30,147.1-34.6,194.1H121z"/>
</svg>
